<svg xmlns="http://www.w3.org/2000/svg" width="233" height="99" viewBox="0 0 233 99"><g transform="translate(-3012.093 -4592.051)"><g transform="translate(3012.093 4592.051)"><path d="M49.522,78.456a.755.755,0,0,0,.241-.067A.8.8,0,0,1,50,78.322a2.344,2.344,0,0,1,.517-.143,2.114,2.114,0,0,0,.517-.138,21.319,21.319,0,0,0,3.927-1.787,11.89,11.89,0,0,0,1.757-1.209q.79-.663,1.55-1.32a19.765,19.765,0,0,0,2.549-3.116,20.9,20.9,0,0,0,1.654-3.2,10.743,10.743,0,0,0,.55-1.629c.139-.547.253-1.082.346-1.6a5.19,5.19,0,0,0,.069-.8v-.8c0-.229-.011-.468-.034-.72s-.059-.485-.1-.712a12.469,12.469,0,0,0-.827-2.855,6.053,6.053,0,0,1-.379-.675,2.932,2.932,0,0,0-.448-.663c-.138-.21-.3-.428-.482-.658s-.367-.443-.551-.65a3.894,3.894,0,0,1-.31-.3,1.426,1.426,0,0,0-.379-.294,4.018,4.018,0,0,1-.31-.3,1.416,1.416,0,0,0-.379-.291,5.577,5.577,0,0,0-.758-.552c-.276-.17-.551-.327-.827-.474a17.315,17.315,0,0,0-3.79-1.548,20.706,20.706,0,0,0-4.341-.644q-1.173.025-2.275.073t-2.272.209a1.12,1.12,0,0,1-.931-.25,1.1,1.1,0,0,1-.379-.881,1.454,1.454,0,0,1,.379-.984,1.475,1.475,0,0,1,.931-.509q1.032-.143,2.067-.389t2.067-.528A37.015,37.015,0,0,0,53.036,46.4,20.635,20.635,0,0,0,54.9,45.35c.6-.381,1.194-.8,1.791-1.249a23.247,23.247,0,0,0,3.1-2.777,19.233,19.233,0,0,0,2.412-3.1,21.348,21.348,0,0,0,1.791-3.149,19.562,19.562,0,0,0,1.1-3.193q.138-.779.276-1.488a14.622,14.622,0,0,0,.207-1.48V27.467l-.207-1.423a7.614,7.614,0,0,0-.379-1.363,12.047,12.047,0,0,0-.586-1.266,9.222,9.222,0,0,0-1.723-2.387c-.369-.318-.735-.649-1.1-.988a7.822,7.822,0,0,0-1.309-.959A19.935,19.935,0,0,0,53.932,16.5a7.839,7.839,0,0,0-.863-.26q-.448-.112-.929-.184c-.322-.047-.632-.1-.931-.148s-.609-.1-.929-.147q-1.86-.224-3.929-.286l-1.962-.006-2.033.005-2.068.147q-1.034.076-2.067.218a47.7,47.7,0,0,0-8.2,1.755A28.074,28.074,0,0,0,22.3,21.151a14.835,14.835,0,0,0-1.826,1.22q-.863.671-1.688,1.337a8.9,8.9,0,0,1-.758.761,8.735,8.735,0,0,0-.759.761,9.149,9.149,0,0,0-.757.83c-.231.284-.461.559-.69.82a21.175,21.175,0,0,0-1.17,1.785,14.632,14.632,0,0,0-.965,1.965,12.526,12.526,0,0,0-1.034,3.94,3.316,3.316,0,0,1-.036.455,3.8,3.8,0,0,0-.034.522v.416a1.456,1.456,0,0,1,.07.474,6.442,6.442,0,0,0,.068.992,4.733,4.733,0,0,0,.207.835A14.063,14.063,0,0,0,14.1,41.627a14.822,14.822,0,0,0,.9,1.463A12.766,12.766,0,0,0,16.034,44.4a5.3,5.3,0,0,0,1.171,1.22c.228.2.448.375.655.531s.424.31.653.461a4.008,4.008,0,0,0,.689.493c.231.131.459.271.69.422a8.222,8.222,0,0,1,.792.341q.377.192.723.35.413.148.826.266t.828.265a2.195,2.195,0,0,0,.343.09c.139.027.277.056.415.084a1,1,0,0,0,.412.08l.484.072a3.309,3.309,0,0,1,2.343,1.749,3.763,3.763,0,0,1,.207,3.079,4.987,4.987,0,0,1-.792,1.456,5.438,5.438,0,0,1-1.207,1.134,4.224,4.224,0,0,1-1.48.655,3.85,3.85,0,0,1-1.619.015.911.911,0,0,1-.413-.081l-.069-.06-.276-.029-.138-.052-.138-.048a.52.52,0,0,0-.276-.136.505.505,0,0,1-.276-.134,3.977,3.977,0,0,1-.586-.2c-.162-.07-.334-.138-.517-.208-.369-.176-.725-.357-1.068-.54s-.7-.388-1.069-.613a5.538,5.538,0,0,1-1-.621q-.45-.354-.93-.7a13.412,13.412,0,0,1-1.793-1.547,21.7,21.7,0,0,1-1.549-1.789A14.06,14.06,0,0,1,10.8,48.439,12.286,12.286,0,0,1,9.763,46.3a5.613,5.613,0,0,1-.448-1.111q-.172-.6-.31-1.2a15.708,15.708,0,0,1-.345-4.855,10.626,10.626,0,0,1,.069-1.219c.046-.4.115-.811.207-1.237A.448.448,0,0,0,9,36.389l.07-.146V36.1a.3.3,0,0,1,.033-.177.3.3,0,0,0,.034-.177l.069-.286a2.912,2.912,0,0,0,.172-.611,2.955,2.955,0,0,1,.172-.611,31.992,31.992,0,0,1,2-4.489q.551-1.043,1.207-2.034t1.412-1.991q.343-.464.722-.929t.794-.939c.274-.315.551-.617.827-.908s.55-.571.826-.841A33.384,33.384,0,0,1,21,18.983a44.473,44.473,0,0,1,8.2-4.794,45.773,45.773,0,0,1,4.341-1.741q2.2-.753,4.41-1.4c.735-.238,1.458-.443,2.172-.611s1.457-.35,2.239-.551q1.169-.23,2.274-.418T46.9,9.116q2.274-.317,4.583-.461a29,29,0,0,1,4.651.082,27.6,27.6,0,0,1,4.616.811c.367.09.746.186,1.137.293s.769.231,1.136.362q1.1.4,2.275.929a22.071,22.071,0,0,1,4.065,2.686,18.942,18.942,0,0,1,3.307,3.894,15.87,15.87,0,0,1,2.067,4.966,18.8,18.8,0,0,1,.415,5.608,24.842,24.842,0,0,1-.448,2.824,15.826,15.826,0,0,1-.863,2.744,22.239,22.239,0,0,1-1.24,2.624,24.471,24.471,0,0,1-1.515,2.385A26.354,26.354,0,0,1,67.3,42.979,29.274,29.274,0,0,1,62.958,46a25.152,25.152,0,0,1-4,2l.827.094a19.068,19.068,0,0,1,2.618.468q.345.091.619.191c.184.066.39.128.621.189a10.223,10.223,0,0,1,1.309.509,3.916,3.916,0,0,1,1.171.6,3.625,3.625,0,0,1,.621.362,6.468,6.468,0,0,0,.55.373A11.221,11.221,0,0,1,69.435,52.7a11.761,11.761,0,0,1,1.724,2.456q.343.715.619,1.4a7.526,7.526,0,0,1,.413,1.428,12.939,12.939,0,0,1,.448,3.116,16.971,16.971,0,0,1-.241,3.211,15.364,15.364,0,0,1-.722,3.106A20.461,20.461,0,0,1,70.4,70.322a20.241,20.241,0,0,1-1.689,2.756,21.539,21.539,0,0,1-2.033,2.387,21.031,21.031,0,0,1-4.754,3.766,20.521,20.521,0,0,1-2.549,1.389q-1.311.595-2.618,1.121a24.361,24.361,0,0,1-2.687.75q-1.311.287-2.62.466c-.23.03-.448.063-.653.091a3.273,3.273,0,0,1-.655.022l-.62.085-.345-.022-.345.048a13.652,13.652,0,0,1-2.62-.053A12.383,12.383,0,0,1,41.252,81.6a20.153,20.153,0,0,1-2-1.522,10.821,10.821,0,0,1-1.583-1.922c-.232-.336-.448-.687-.656-1.049a6.889,6.889,0,0,1-.517-1.138l-.413-1.186a2.019,2.019,0,0,1-.138-.6q-.069-.057-.069-.335l-.069-.129v-.205a1.089,1.089,0,0,1,.172-.959A1.45,1.45,0,0,1,36.774,72a.989.989,0,0,1,.861-.016,1.024,1.024,0,0,1,.517.516l.069.267v.068l.069.127a.13.13,0,0,0,.034.1.126.126,0,0,1,.034.1,1.721,1.721,0,0,1,.1.227,1.655,1.655,0,0,0,.1.228,3.439,3.439,0,0,1,.207.454,3.253,3.253,0,0,0,.207.457c.184.3.367.569.552.821a8.062,8.062,0,0,0,.619.744,7.1,7.1,0,0,0,3.032,2.135,6.6,6.6,0,0,0,.9.326,6.045,6.045,0,0,0,.966.179,6.455,6.455,0,0,0,.929.077q.448.009,1,0a7.528,7.528,0,0,0,2-.274l.276-.039.137-.019.07-.009ZM28.161,82.583a9.058,9.058,0,0,1-.655.679,8.27,8.27,0,0,0-.655.675q-.346.323-.723.621c-.254.2-.517.4-.792.627a15.608,15.608,0,0,1-3.514,1.866,5.289,5.289,0,0,1-.93.3c-.3.062-.61.141-.93.231l-.9.125a1.559,1.559,0,0,1-.482,0l-.207.028-.07.009-.068.011-.07.01c-.322,0-.632-.006-.929-.013a4.737,4.737,0,0,1-.861-.085,4.081,4.081,0,0,1-1.791-.445,5.035,5.035,0,0,1-.861-.331q-.381-.19-.794-.408-.345-.3-.655-.6c-.205-.2-.425-.4-.653-.6a7.994,7.994,0,0,1-1.655-2.95,11.842,11.842,0,0,1-.345-3.268,11.662,11.662,0,0,1,.758-3.214c.092-.243.2-.485.311-.735s.241-.493.378-.742a9.582,9.582,0,0,1,.965-1.308.688.688,0,0,1,1.034-.142.635.635,0,0,1,.207.73v.071a2.993,2.993,0,0,0-.207.58,5.51,5.51,0,0,1-.207.65,1.637,1.637,0,0,1-.034.315,1.67,1.67,0,0,0-.034.317,1.522,1.522,0,0,0-.069.563,7.582,7.582,0,0,0,.207,2.32,3.948,3.948,0,0,0,.827,1.818A3.013,3.013,0,0,0,15,81.5a2.957,2.957,0,0,0,.413.182,1.161,1.161,0,0,1,.345.194l.827.1a3.77,3.77,0,0,0,.827-.047l.894-.123.07-.009v-.07l.069-.01.068-.009.277-.039a.616.616,0,0,1,.205-.1.614.614,0,0,0,.207-.1c.138-.065.277-.129.415-.2s.276-.131.412-.2c.231-.169.459-.338.69-.509a4.538,4.538,0,0,0,.689-.647q.138-.158.345-.357c.138-.136.251-.255.345-.36.091-.15.182-.29.276-.418s.182-.267.276-.417a16.158,16.158,0,0,0,1.171-1.958c.091-.2.182-.384.276-.559s.184-.359.276-.555.172-.38.241-.554.148-.374.241-.618q.413-1.095.827-2.395a26.214,26.214,0,0,0,.827-2.5q.345-1.256.689-2.551.207-.648.379-1.294c.114-.432.217-.859.31-1.286s.2-.857.31-1.287.217-.881.31-1.356c.046-.236.092-.449.138-.64s.092-.4.138-.642.092-.46.138-.675.092-.438.138-.673l.276-1.352.276-1.352,1.1-5.47q.345-1.361.62-2.711t.62-2.78q.345-1.429.723-2.829t.861-2.848q.482-1.446,1-2.9t1.206-2.929a3.59,3.59,0,0,0,.345-.67,8.13,8.13,0,0,1,.413-.748,2.506,2.506,0,0,0,.207-.409c.046-.119.092-.229.138-.329a1.578,1.578,0,0,0,.241-.378,1.533,1.533,0,0,1,.241-.38l.413-.678a3.2,3.2,0,0,1,.482-.758,5.3,5.3,0,0,1,.448-.684c.161-.205.333-.437.517-.693q.345-.392.586-.7a5.666,5.666,0,0,1,.586-.632c.23-.262.436-.485.62-.674s.39-.386.62-.6a25.98,25.98,0,0,1,2.756-2.108,14.7,14.7,0,0,1,2.963-1.446A16.812,16.812,0,0,1,50.349,21a1.067,1.067,0,0,1,.827.2.891.891,0,0,1,.345.748,1.308,1.308,0,0,1-.482,1.034c-.369.327-.723.642-1.069.941s-.7.615-1.067.941q-.9.954-1.724,1.966a22.446,22.446,0,0,0-2.341,4.122,19.357,19.357,0,0,0-.827,2.257q-.346,1.154-.69,2.376t-.586,2.5q-.241,1.277-.517,2.558-.207,1.342-.447,2.651t-.518,2.663q-.276,1.349-.517,2.7t-.586,2.775l-.619,2.779-.621,2.781a6.851,6.851,0,0,1-.345,1.36l-.345,1.429q-.069.357-.138.711a4.4,4.4,0,0,1-.207.718,4.318,4.318,0,0,0-.205.72,4.7,4.7,0,0,1-.207.721q-.348,1.429-.827,2.806-.209.72-.415,1.405T35.74,68.27L34.707,71.11q-.345.737-.62,1.467a13.1,13.1,0,0,1-.62,1.4,25.646,25.646,0,0,1-1.447,2.9,7.3,7.3,0,0,1-.827,1.427,8.691,8.691,0,0,1-.9,1.437,7.719,7.719,0,0,1-.448.717c-.162.231-.333.474-.517.73-.231.264-.426.5-.586.7s-.356.44-.586.7" transform="translate(-8.604 -8.598)" fill="#11361f"/><path d="M94.654,40.1a.531.531,0,0,1,.3.416,1.075,1.075,0,0,1-.051.567,5.107,5.107,0,0,1-.352.658l-.3.7c-.1.217-.253.526-.453.928s-.37.727-.5.982q-.354.658-.68,1.314c-.219.436-.444.892-.679,1.365q-.4.664-.78,1.327c-.253.44-.512.866-.781,1.276q-.4.666-.829,1.336c-.285.445-.579.875-.88,1.289-.168.227-.327.445-.477.651s-.311.425-.478.652q-.251.287-.554.61c-.2.213-.4.419-.6.618A13.974,13.974,0,0,1,85.2,56.05c-.135.085-.269.181-.4.285a3.294,3.294,0,0,1-.453.291,3.848,3.848,0,0,1-1.106.459l-.1.064-.051.008-.151.022a.21.21,0,0,0-.126.042.217.217,0,0,1-.125.043l-.555.077a4.719,4.719,0,0,1-1.207.015,3.962,3.962,0,0,1-1.258-.383,2.793,2.793,0,0,1-1.005-.725,2.073,2.073,0,0,1-.7-.916,2.841,2.841,0,0,1-.453-.952,3.436,3.436,0,0,1-.277-.878q-.075-.446-.176-.889L76.9,50.957v-.1c-.167.362-.344.723-.528,1.088s-.378.731-.579,1.1q-.251.442-.552.915t-.6.923q-.352.454-.7.86c-.235.268-.486.542-.754.817a7.554,7.554,0,0,1-1.911,1.485,8.453,8.453,0,0,1-2.366.988.769.769,0,0,0-.3.093l-.05.008-.051.006-.051.008-.151.022-.6.083a4.607,4.607,0,0,1-1.41-.006,3.274,3.274,0,0,1-1.409-.413,4.343,4.343,0,0,1-1.207-.9,4.791,4.791,0,0,1-.855-1.2,6.069,6.069,0,0,1-.277-.595c-.083-.211-.158-.411-.227-.6a7.1,7.1,0,0,1-.276-1.2q-.077-.574-.126-1.127V52.079c0-.373.018-.748.051-1.124.033-.345.059-.685.075-1.027a7.461,7.461,0,0,1,.125-1.034c.034-.174.06-.339.075-.493a2.162,2.162,0,0,1,.126-.5c.068-.416.134-.763.2-1.044q.1-.471.2-.967c.069-.332.135-.655.2-.97q.151-.477.277-.977c.083-.333.176-.658.276-.979.068-.313.152-.63.253-.949s.2-.637.3-.954c.1-.285.208-.589.327-.91s.226-.641.328-.96.208-.63.325-.934.227-.616.328-.935c.268-.611.519-1.224.754-1.832s.486-1.217.754-1.831a5.261,5.261,0,0,1,.4-.869,7.244,7.244,0,0,1,.4-.92,3.835,3.835,0,0,1,.2-.458,4.537,4.537,0,0,0,.2-.462l.251-.441.1-.216.1-.267a4.408,4.408,0,0,1,2.238-2.117,3.5,3.5,0,0,1,2.843-.065,2.952,2.952,0,0,1,1.76,1.938,3.779,3.779,0,0,1-.251,2.88l-.05.059-.352.759-.4.868-.4.819-.4.817c-.268.581-.521,1.139-.753,1.68s-.487,1.1-.755,1.68q-.754,1.679-1.46,3.352t-1.308,3.383c-.1.285-.193.559-.276.826s-.177.541-.277.827a1.377,1.377,0,0,0-.126.4,1.445,1.445,0,0,1-.126.4,1.431,1.431,0,0,0-.125.4,1.482,1.482,0,0,1-.126.4c-.068.279-.125.55-.175.81s-.11.517-.177.762a7.707,7.707,0,0,0-.149.783c-.036.242-.069.485-.1.725a3.344,3.344,0,0,0,0,1.169,1.457,1.457,0,0,0,.051.45v.254a.414.414,0,0,1,.051.2.84.84,0,0,0,.2.225.434.434,0,0,0,.352.154.351.351,0,0,0,.125.033.438.438,0,0,1,.126.033l.051-.008.05-.005.05-.008v.051l.151-.02A2.987,2.987,0,0,0,70,54.71a3.655,3.655,0,0,0,1.258-.633c.2-.128.41-.277.628-.443a6.439,6.439,0,0,0,.629-.544c.2-.2.4-.4.6-.619a4.856,4.856,0,0,0,.554-.712,17.157,17.157,0,0,0,1.057-1.466q.5-.783.956-1.555c.3-.55.579-1.1.829-1.665s.512-1.129.78-1.709c0-.033.009-.052.027-.055s.024-.02.024-.055c.066-.346.126-.676.176-.989s.11-.642.176-.989q.251-1.56.6-2.928.151-.731.327-1.442c.117-.475.244-.956.378-1.45s.268-.977.4-1.453.268-.96.4-1.453l.906-2.868c.066-.213.142-.434.226-.666s.158-.471.227-.718l.251-.746a.889.889,0,0,0,.125-.347.893.893,0,0,1,.126-.347,4.357,4.357,0,0,1,1.886-2.243,3.357,3.357,0,0,1,2.692-.425,2.936,2.936,0,0,1,1.962,1.631,3.307,3.307,0,0,1,.048,2.71.176.176,0,0,0-.048.108l-.051.008-.251.644-.251.644c-.1.253-.193.485-.277.7s-.16.427-.227.641q-.253.643-.527,1.319T86.1,35.912c-.17.462-.327.916-.48,1.36s-.309.883-.477,1.312q-.251.695-.453,1.358T84.24,41.25q-.251.695-.427,1.354a12.251,12.251,0,0,1-.427,1.3c-.134.459-.25.907-.352,1.344s-.2.868-.3,1.287q-.2.687-.327,1.316t-.227,1.25l-.151,1.24c0,.17-.009.35-.027.537s-.024.366-.024.536a2.429,2.429,0,0,1,.051.476,1.648,1.648,0,0,0,.051.424.958.958,0,0,1,.049.3.126.126,0,0,0,.051.093v.051c.033.029.033.046,0,.051v.051a.272.272,0,0,0,.2.022c0,.034.034.047.1.037l.1-.014.051-.008.251-.034a.511.511,0,0,1,.2-.079.337.337,0,0,0,.2-.129c.134-.087.277-.174.427-.263a5.129,5.129,0,0,0,.478-.32c.167-.158.328-.3.478-.421a4.034,4.034,0,0,0,.477-.473c.168-.158.334-.31.5-.452a4.531,4.531,0,0,0,.5-.5q.454-.521.931-1.044c.318-.35.629-.713.931-1.095s.6-.76.9-1.142l.906-1.141c.268-.411.552-.805.855-1.187s.587-.775.856-1.185a5.128,5.128,0,0,0,.578-.893,5.079,5.079,0,0,1,.578-.893l.4-.614a2.013,2.013,0,0,0,.2-.283c.066-.11.133-.222.2-.332a.81.81,0,0,1,1.157-.315" transform="translate(5.971 -3.99)" fill="#11361f"/><path d="M113.226,36.718c.435.176.537.484.3.923v.051q-.6,1.2-1.207,2.377T111.113,42.4c-.435.8-.873,1.594-1.307,2.364s-.889,1.546-1.359,2.321q-.1.168-.176.306a1.466,1.466,0,0,1-.176.253c-.068.111-.134.214-.2.306s-.134.2-.2.308c-.134.19-.26.375-.378.561a4.81,4.81,0,0,1-.429.568,6.794,6.794,0,0,1-.426.541c-.151.174-.311.356-.478.55a4.82,4.82,0,0,1-1.056,1.062,4.674,4.674,0,0,1-1.308.994,3.483,3.483,0,0,1-.855.373,2.587,2.587,0,0,1-1.007.14,3.963,3.963,0,0,1-1.007-.166,1.848,1.848,0,0,1-.855-.438,5.152,5.152,0,0,1-.655-.57,1.487,1.487,0,0,0-.226-.324,1.488,1.488,0,0,1-.226-.324,5.912,5.912,0,0,1-.6-1.337c-.068-.228-.134-.447-.2-.658s-.135-.448-.2-.708a3.362,3.362,0,0,1-.126-.669c-.017-.217-.042-.443-.075-.675l-.151-1.351a33.258,33.258,0,0,1,.151-5.455q.2-1.552.6-3.335a15.6,15.6,0,0,1-2.114.447,15.9,15.9,0,0,1-3.319.31,21.586,21.586,0,0,1-2.516-.259.488.488,0,0,0-.075.111.48.48,0,0,1-.075.112,7.407,7.407,0,0,1-.653,1.36,6.983,6.983,0,0,1-.328.707q-.176.329-.378.662c-.1.216-.209.434-.327.655s-.242.44-.378.662c-.066.111-.133.222-.2.332s-.133.222-.2.334a5.726,5.726,0,0,1-.4.666.486.486,0,0,1-.351.276.753.753,0,0,1-.453-.013.658.658,0,0,1-.2-.785,6.493,6.493,0,0,0,.352-.657c.1-.218.2-.435.3-.652s.208-.436.327-.656.226-.438.328-.655c.1-.251.2-.486.3-.7s.2-.434.3-.651q.3-.7.554-1.346a.175.175,0,0,0,.05-.108c-.435-.176-.873-.369-1.308-.581a6.862,6.862,0,0,1-1.257-.79,4.988,4.988,0,0,1-1.309-1.29,5.4,5.4,0,0,1-.9-1.8,5.211,5.211,0,0,1-.152-2.164,5.73,5.73,0,0,1,.7-2.283,3.444,3.444,0,0,0,.352-.505,2.066,2.066,0,0,1,.2-.205,2.609,2.609,0,0,0,.2-.207,4.4,4.4,0,0,1,.4-.411q.2-.182.453-.369a3.944,3.944,0,0,1,.9-.481c.3-.111.6-.219.906-.329l.453-.063.2-.028.051-.008.05-.006.1-.013.4-.057a2.468,2.468,0,0,1,.453-.013,3.038,3.038,0,0,0,.4.02,1.77,1.77,0,0,1,.453.063,3.285,3.285,0,0,1,.426.145c.117.052.259.116.429.194a1.846,1.846,0,0,1,.352.282c.1.1.2.218.3.338a1.424,1.424,0,0,1,.227.375c.05.129.108.272.176.433a1.138,1.138,0,0,1,.125.389,2.949,2.949,0,0,0,.077.394,2.945,2.945,0,0,0,.024.43,2.672,2.672,0,0,1,.026.376,3.253,3.253,0,0,1-.026.436,2.622,2.622,0,0,0-.024.383,1.639,1.639,0,0,0-.051.388,1.691,1.691,0,0,1-.051.389q-.05.211-.151.732l1.005-.14a19.807,19.807,0,0,0,4.579-1.248,11,11,0,0,0,1.207-.447q.6-.262,1.207-.5c.4-.19.8-.382,1.183-.57s.8-.382,1.233-.578l1.156-.415a2.92,2.92,0,0,1,2.466.115,2.753,2.753,0,0,1,1.458,1.929,3.414,3.414,0,0,1-.126,1.872,3.917,3.917,0,0,1-1.031,1.591,15.749,15.749,0,0,0-1.358,1.561q-.3.448-.6.921c-.2.316-.385.638-.554.966a28.4,28.4,0,0,0-1.86,4.374c-.1.387-.2.764-.3,1.134s-.2.748-.3,1.133c-.034.175-.068.365-.1.574s-.068.4-.1.572a5.052,5.052,0,0,0-.075.569,5.26,5.26,0,0,1-.077.569,6.611,6.611,0,0,0-.1,1.132v1.118a2.53,2.53,0,0,1,.05.5,2.542,2.542,0,0,0,.05.5,2.761,2.761,0,0,0,.253.88,1.933,1.933,0,0,0,.3.567.619.619,0,0,0,.152.182c.033.028.057.043.075.041s.041.011.074.038a.215.215,0,0,1,.1.013.206.206,0,0,0,.1.011.631.631,0,0,0,.177-.05.571.571,0,0,1,.176-.051,2.119,2.119,0,0,0,.4-.208c.134-.085.283-.174.453-.267a4.241,4.241,0,0,0,.9-.735,6.8,6.8,0,0,0,.855-.831l.856-.982a2.944,2.944,0,0,0,.2-.256c.069-.093.135-.179.2-.256a4.414,4.414,0,0,1,.4-.512,37.078,37.078,0,0,0,2.816-4.355q.352-.555.655-1.108t.6-1.15q.3-.6.6-1.176c.2-.384.387-.773.555-1.169a.741.741,0,0,1,.4-.411.8.8,0,0,1,.554-.078M87.418,29.186a1.688,1.688,0,0,0,.3.592,3.215,3.215,0,0,0,.453.471l.6.374a3.024,3.024,0,0,1,.352.153,2.568,2.568,0,0,0,.352.154,2.529,2.529,0,0,0,.653.24,6.923,6.923,0,0,0,.755.122c.066-.347.117-.592.151-.731a2.3,2.3,0,0,1,.026-.359,1.96,1.96,0,0,0,.024-.309,1.084,1.084,0,0,0,.051-.338v-.33a2.387,2.387,0,0,0-.2-1.088,2.224,2.224,0,0,0-.253-.371,1.147,1.147,0,0,0-.3-.211,1.786,1.786,0,0,0-.954-.071,1.646,1.646,0,0,0-.253.061,1.959,1.959,0,0,1-.3.066v.051l-.051.008-.05.006-.051.006a.175.175,0,0,0-.1.065.447.447,0,0,0-.152.046.2.2,0,0,1-.1.04,2.145,2.145,0,0,0-.755.665.566.566,0,0,0-.151.376.773.773,0,0,0-.051.311" transform="translate(11.947 -4.104)" fill="#11361f"/><path d="M118.873,62.764c-.233.472-.47.938-.7,1.395s-.486.921-.754,1.4-.546.947-.831,1.41-.595.921-.93,1.374a9.009,9.009,0,0,1-.528.735c-.184.227-.361.456-.528.683q-.3.345-.6.693t-.655.7q-.352.3-.729.635c-.253.219-.512.434-.781.642l-.1.064-.1.116a.454.454,0,0,1-.151.071.167.167,0,0,0-.1.065.554.554,0,0,1-.251.162.523.523,0,0,0-.251.161c-.168.092-.337.175-.5.25s-.336.156-.5.246c-.37.12-.721.227-1.056.325a4.6,4.6,0,0,1-1.057.172A6.071,6.071,0,0,1,105.644,74a5.481,5.481,0,0,1-1.964-.743,4.622,4.622,0,0,1-1.559-1.562,3.874,3.874,0,0,1-.552-.989,6.414,6.414,0,0,1-.3-1.076,6.771,6.771,0,0,1,.051-2.191,7.4,7.4,0,0,1,.5-1.95,14.4,14.4,0,0,1,.8-1.737,2.269,2.269,0,0,1,.227-.387,2.227,2.227,0,0,0,.226-.389,3.846,3.846,0,0,0,.253-.389l.1-.166.051-.11.05-.057.05-.008c.1-.148.194-.279.278-.394s.175-.244.276-.393c.1-.116.2-.231.3-.347a2.524,2.524,0,0,1,.3-.3,10.384,10.384,0,0,1,1.257-1.243c.2-.2.4-.378.6-.54l.6-.49q.6-.542,1.234-1.009t1.231-.908c.4-.328.813-.629,1.233-.907s.831-.567,1.233-.859q1.208-.829,2.465-1.663l2.265-1.535c.066-.246.142-.5.226-.743s.158-.5.226-.743q.854-2.812,1.509-5.442a10.453,10.453,0,0,0,.327-1.162c.083-.384.176-.769.277-1.156-.1.217-.211.429-.327.63s-.244.4-.378.586a13.559,13.559,0,0,1-1.056,1.569c-.2.23-.4.471-.6.718a6.27,6.27,0,0,1-.7.732,9.075,9.075,0,0,1-1.66,1.3c-.168.092-.336.175-.5.248s-.334.157-.5.249a1.8,1.8,0,0,1-.5.171.382.382,0,0,0-.151.046.371.371,0,0,1-.152.048l-.151.019-.05.008-.05.008a2.514,2.514,0,0,1-.6.108c-.2.013-.4.014-.6.009-.168-.011-.36-.036-.579-.073s-.426-.075-.628-.116c-.167-.078-.345-.163-.528-.256a4.6,4.6,0,0,1-.528-.308,4.855,4.855,0,0,1-.856-.845,4.282,4.282,0,0,1-.552-.94c-.068-.159-.125-.313-.176-.458s-.11-.3-.176-.457a9.823,9.823,0,0,1-.352-1.933,8.242,8.242,0,0,1-.05-.907v-.914c0-.3.008-.611.026-.917s.042-.6.075-.874q.1-.879.276-1.766t.427-1.786c.168-.6.336-1.18.5-1.746s.37-1.134.6-1.709a16.694,16.694,0,0,1,.7-1.7q.4-.844.805-1.663a22.356,22.356,0,0,1,2.163-3.348q.6-.745,1.358-1.561a9.571,9.571,0,0,1,1.61-1.443,7.894,7.894,0,0,1,.956-.666q.5-.3,1.057-.63a8.906,8.906,0,0,1,2.315-.778,11.986,11.986,0,0,1,2.465-.191,11.685,11.685,0,0,1,2.213.454q.5.184.981.4a7.293,7.293,0,0,1,.88.461c.168.112.31.212.429.3s.242.17.378.253a2.73,2.73,0,0,1,.4.3l.151.133.2.125a2.957,2.957,0,0,1,1.108,2.283,3.879,3.879,0,0,1-.906,2.616,4.2,4.2,0,0,1-2.415,1.428,2.842,2.842,0,0,1-2.464-.6l-.2-.175-.051-.093L123,28.718l-.1-.089-.2-.174c-.068-.057-.135-.116-.2-.176s-.134-.116-.2-.175c-.134-.082-.26-.167-.378-.251a8.2,8.2,0,0,0-.753-.379,1.569,1.569,0,0,1-.328-.13c-.134-.015-.251-.024-.353-.029a2.282,2.282,0,0,0-.351.024,2.175,2.175,0,0,0-.754.157,6.207,6.207,0,0,0-.855.422,6.11,6.11,0,0,0-.931.689q-.478.423-.93.891a14.574,14.574,0,0,0-1.761,2.278q-.4.616-.755,1.248t-.7,1.342q-.352.658-.653,1.361c-.2.467-.387.934-.554,1.4q-.253.745-.452,1.434c-.135.459-.253.931-.353,1.421a13.029,13.029,0,0,0-.3,2.732v.61a1.8,1.8,0,0,0,.1.6,2.784,2.784,0,0,0,.251.879.447.447,0,0,0,.2.226.255.255,0,0,0,.2.176.3.3,0,0,0,.251.065.809.809,0,0,0,.4.047l.051-.008.051-.006.05-.008.1-.014.2-.028a.977.977,0,0,1,.277-.089.536.536,0,0,0,.227-.083q.251-.134.528-.3c.184-.11.376-.231.578-.36.167-.125.345-.268.528-.429a5.745,5.745,0,0,0,.528-.53l.5-.581c.168-.191.336-.383.5-.578a25.372,25.372,0,0,0,1.811-2.637q.4-.716.78-1.4t.78-1.453c.134-.256.26-.5.376-.738s.228-.481.328-.734c.066-.143.125-.272.176-.38s.108-.234.177-.378l.149-.378.1-.166.05-.211.1-.217a4.17,4.17,0,0,1,1.558-2.35,3.709,3.709,0,0,1,2.617-.822,2.809,2.809,0,0,1,2.238,1.236,3.249,3.249,0,0,1,.478,2.6.053.053,0,0,1-.051.059l-.151.732-.151.731c-.068.248-.126.484-.176.711s-.108.464-.176.711q-.2.741-.376,1.449t-.378,1.448q-.4,1.378-.755,2.669t-.754,2.672a5.542,5.542,0,0,1,.5-.426,5.688,5.688,0,0,0,.5-.426q.553-.482,1.106-.967t1.108-.966a13.074,13.074,0,0,0,1.032-1.007q.477-.524.98-1.051,1.007-1.055,1.911-2.2a10.213,10.213,0,0,0,.855-1.134,10.589,10.589,0,0,0,.755-1.071c.334-.521.57-.875.7-1.063V35.09a.786.786,0,0,1,.4-.31.664.664,0,0,1,.5.032.539.539,0,0,1,.2.785,8.669,8.669,0,0,1-.453.826q-.3.5-.6,1.025c-.2.348-.4.683-.6,1s-.369.584-.5.806q-.4.666-.856,1.287l-.9,1.244c-.336.419-.662.82-.981,1.2s-.662.771-1.031,1.161q-1.007,1.156-2.063,2.216-1,1-2.036,1.933T123.9,50.179l-.453,1.282q-.253.746-.5,1.415c-.167.448-.336.919-.5,1.416q-.555,1.5-1.108,2.847-.553,1.4-1.156,2.8t-1.309,2.824m-5.332-1.948q.6-1.305,1.056-2.585a1.484,1.484,0,0,0,.152-.352,1.308,1.308,0,0,1,.151-.351,3.529,3.529,0,0,0-.352.251,3.882,3.882,0,0,1-.353.253q-.553.482-1.106.942t-1.106.942q-1.158.972-2.163,1.876-.505.477-.93.966t-.832.956l-.2.231c-.066.077-.134.152-.2.231a1.058,1.058,0,0,0-.251.441l-.2.23a.684.684,0,0,1-.075.139.63.63,0,0,0-.075.137,2.649,2.649,0,0,1-.251.493q-.2.433-.4.97a2.114,2.114,0,0,0-.125.476,2.128,2.128,0,0,1-.075.366,2.274,2.274,0,0,0,.05.6.39.39,0,0,0,.051.222,1.308,1.308,0,0,1,.1.163,1.245,1.245,0,0,0,.3.213,1.539,1.539,0,0,0,.5.184,2.659,2.659,0,0,0,.6-.034,3.051,3.051,0,0,0,.655-.191l.3-.2a.246.246,0,0,0,.152-.07l.05-.059.051-.008V68.2a1.677,1.677,0,0,0,.352-.3,4.146,4.146,0,0,1,.351-.353,6.6,6.6,0,0,0,.73-.889q.327-.477.68-1.034c.233-.371.453-.749.655-1.133s.417-.778.653-1.183q.3-.6.578-1.222t.528-1.267" transform="translate(16.715 -5.439)" fill="#11361f"/><path d="M155.613,35.286c-.3.416-.6.829-.906,1.244l-.906,1.244q-.955,1.2-1.962,2.381t-2.161,2.307c-.371.39-.748.763-1.134,1.122s-.8.721-1.231,1.087a27.578,27.578,0,0,1-2.565,2.034,21.427,21.427,0,0,1-2.868,1.871c-.268.14-.537.278-.805.419a8.781,8.781,0,0,1-.805.365c-.269.106-.545.2-.829.292s-.579.191-.88.3a3.73,3.73,0,0,1-.856.219q-.452.065-.906.126a8.2,8.2,0,0,1-1.91.064,5.681,5.681,0,0,1-1.911-.345,6.853,6.853,0,0,1-.957-.324q-.452-.189-.906-.433a7.22,7.22,0,0,1-1.559-1.206,8.152,8.152,0,0,1-.653-.745c-.2-.26-.387-.513-.554-.762a5.648,5.648,0,0,1-.452-.8,8.739,8.739,0,0,1-.353-.865,11.074,11.074,0,0,1-.453-1.766,8.417,8.417,0,0,1-.226-1.7q-.025-.857.026-1.731t.176-1.7c.084-.552.194-1.094.327-1.619a27.769,27.769,0,0,1,2.364-6.12c.235-.507.485-.989.754-1.451s.554-.915.855-1.364.6-.887.906-1.319a15.553,15.553,0,0,1,1.005-1.282,7.409,7.409,0,0,1,.555-.662c.2-.214.385-.417.554-.61.2-.2.4-.387.6-.567s.4-.369.6-.567q.655-.6,1.333-1.125a15.628,15.628,0,0,1,1.434-.986q.655-.394,1.559-.878c.268-.1.545-.212.831-.319s.578-.216.88-.325a6.159,6.159,0,0,1,.931-.256,3.969,3.969,0,0,1,.98-.061c.334-.011.68-.008,1.031.009a4.483,4.483,0,0,1,1.083.205,5.263,5.263,0,0,1,1.96,1.048,4.926,4.926,0,0,1,1.41,1.734,8.2,8.2,0,0,1,.7,1.934,14.062,14.062,0,0,1,.152,2.011,11.862,11.862,0,0,1-.152,1.9c-.066.315-.143.623-.226.923s-.16.588-.226.869q-.3.905-.68,1.77a11.219,11.219,0,0,1-.93,1.7,9.308,9.308,0,0,1-1.157,1.633A6.937,6.937,0,0,1,145,35.749q-.4.36-.906.735a1.006,1.006,0,0,0-.251.137l-.152.071a.175.175,0,0,1-.1.065,4.5,4.5,0,0,1-.4.209,9.2,9.2,0,0,1-1.61.68,11.611,11.611,0,0,1-3.471.736l-.9-.026a4.3,4.3,0,0,1-.429-.043,3.406,3.406,0,0,1-.426-.092,6.086,6.086,0,0,1-1.612-.537,2.264,2.264,0,0,1-.376-.176,1.948,1.948,0,0,1-.327-.235,1.1,1.1,0,0,1-.3-.212,1.924,1.924,0,0,1-.352-.254c-.168-.181-.336-.361-.5-.54s-.336-.378-.5-.591a.13.13,0,0,1-.048-.1.121.121,0,0,0-.051-.093V36.3a9.348,9.348,0,0,0,.077,1.234c.05.383.108.757.176,1.119a7.121,7.121,0,0,0,.276,1.053,9.78,9.78,0,0,0,.378.939,3.977,3.977,0,0,0,.9,1.4,2.3,2.3,0,0,0,.5.489q.253.168.552.329a1.786,1.786,0,0,0,.579.249,5.807,5.807,0,0,0,.73.129,4.232,4.232,0,0,0,.855.108c.3.009.637.022,1.005.038.168-.024.345-.04.528-.048s.361-.026.528-.048a3.107,3.107,0,0,0,1.108-.154,15.944,15.944,0,0,0,2.415-.641q.6-.235,1.207-.522t1.206-.626c.4-.225.8-.467,1.183-.723s.763-.512,1.132-.768q1.158-.819,2.29-1.739t2.187-1.932c.168-.157.345-.318.53-.48a5.326,5.326,0,0,0,.528-.531c.166-.157.343-.333.528-.53s.36-.388.528-.582.419-.454.755-.79.584-.6.753-.791a5.835,5.835,0,0,1,.5-.526l.2-.283.251-.288a.727.727,0,0,1,1.057-.2.663.663,0,0,1,.1.953l-.1.165-.1.166-.251.341c-.068.111-.134.213-.2.308s-.135.2-.2.306c-.135.222-.352.532-.655.93s-.537.709-.7.935M133.88,28.711a10.9,10.9,0,0,0-.528,1.243c-.151.427-.295.854-.427,1.279a11.932,11.932,0,0,0-.5,2.405l.051.045c.4.216.789.4,1.157.551a3.5,3.5,0,0,0,1.157.295.349.349,0,0,0,.126.033.445.445,0,0,1,.125.033.351.351,0,0,1,.151,0,.308.308,0,0,0,.151.006.823.823,0,0,0,.277.01.862.862,0,0,1,.277.013,5.726,5.726,0,0,0,2.113-.5c.334-.148.662-.311.981-.493s.646-.378.981-.595q.249-.186.478-.371c.151-.121.31-.246.477-.37a.5.5,0,0,1,.1-.091.517.517,0,0,0,.1-.089l.05-.057.051-.059a.317.317,0,0,0,.124-.12,1.01,1.01,0,0,1,.126-.17,2.565,2.565,0,0,0,.227-.31c.083-.13.158-.25.226-.362a2.734,2.734,0,0,0,.453-.925,4.517,4.517,0,0,0,.4-.945c.1-.336.182-.678.251-1.025.033-.175.066-.341.1-.5a2.445,2.445,0,0,0,.05-.49,2.623,2.623,0,0,0,.05-.463v-.458a1.362,1.362,0,0,0,.026-.435,2.5,2.5,0,0,1-.026-.376,2.338,2.338,0,0,0-.024-.353,1.547,1.547,0,0,1-.026-.25.838.838,0,0,1-.05-.273.473.473,0,0,0-.051-.221.759.759,0,0,0-.151-.384,2.513,2.513,0,0,1-.2-.2.733.733,0,0,0-.3-.186,2.451,2.451,0,0,0-.856-.287,1.719,1.719,0,0,0-.528-.054,5.186,5.186,0,0,1-.528,0,3.128,3.128,0,0,0-1.106.153,6.39,6.39,0,0,0-2.213,1.12,6.064,6.064,0,0,0-1.008.9c-.3.314-.586.641-.855.984a13.925,13.925,0,0,0-1.458,2.335" transform="translate(23.735 -5.874)" fill="#11361f"/><path d="M176.9,27.855c.435.177.536.484.3.924v.05q-.6,1.2-1.207,2.377t-1.21,2.329c-.434.805-.871,1.595-1.307,2.364s-.889,1.548-1.359,2.322c-.066.112-.125.213-.176.306a1.382,1.382,0,0,1-.175.251c-.069.112-.134.214-.2.308s-.135.2-.2.306c-.135.19-.26.375-.378.561a4.607,4.607,0,0,1-.429.568c-.135.189-.277.369-.427.542s-.31.356-.477.549a4.849,4.849,0,0,1-1.057,1.062,4.679,4.679,0,0,1-1.309.994,3.519,3.519,0,0,1-.855.374,2.584,2.584,0,0,1-1.005.139,3.909,3.909,0,0,1-1.007-.165,1.867,1.867,0,0,1-.856-.439,5.031,5.031,0,0,1-.653-.57,1.522,1.522,0,0,0-.226-.323,1.518,1.518,0,0,1-.226-.324,5.923,5.923,0,0,1-.6-1.338q-.1-.341-.2-.657c-.066-.212-.134-.448-.2-.709a3.262,3.262,0,0,1-.128-.669c-.015-.217-.041-.443-.074-.674l-.151-1.351a33.255,33.255,0,0,1,.151-5.455q.2-1.552.6-3.337a15.166,15.166,0,0,1-2.113.447,15.824,15.824,0,0,1-3.32.31,21.289,21.289,0,0,1-2.515-.259.563.563,0,0,0-.077.111.465.465,0,0,1-.074.114,7.366,7.366,0,0,1-.655,1.36,7.109,7.109,0,0,1-.327.707q-.176.329-.378.662c-.1.216-.211.434-.327.653s-.244.44-.378.662c-.066.112-.134.222-.2.333s-.133.222-.2.333a5.3,5.3,0,0,1-.4.666.484.484,0,0,1-.352.277.764.764,0,0,1-.453-.013.658.658,0,0,1-.2-.785,6.634,6.634,0,0,0,.351-.658l.3-.651c.1-.219.208-.438.327-.657s.227-.436.328-.653q.149-.377.3-.7c.1-.217.2-.435.3-.652.2-.467.385-.917.552-1.346a.166.166,0,0,0,.051-.107c-.435-.177-.873-.37-1.308-.581a6.906,6.906,0,0,1-1.258-.791,4.983,4.983,0,0,1-1.308-1.29,5.333,5.333,0,0,1-.9-1.8,5.165,5.165,0,0,1-.152-2.164,5.71,5.71,0,0,1,.7-2.281,3.649,3.649,0,0,0,.352-.507,2.046,2.046,0,0,1,.2-.2,2.427,2.427,0,0,0,.2-.208,4.565,4.565,0,0,1,.4-.411c.135-.121.286-.244.454-.367a3.8,3.8,0,0,1,.9-.481c.3-.111.6-.221.906-.33l.452-.061.2-.028.05-.008.05-.008.1-.013.4-.056a2.257,2.257,0,0,1,.453-.013,3.02,3.02,0,0,0,.4.02,1.77,1.77,0,0,1,.453.063,3.076,3.076,0,0,1,.427.144c.117.052.259.116.427.194a1.907,1.907,0,0,1,.353.282c.1.106.2.219.3.338a1.439,1.439,0,0,1,.226.375q.077.193.176.433a1.149,1.149,0,0,1,.126.389,2.744,2.744,0,0,0,.077.4,3.142,3.142,0,0,0,.023.429,2.487,2.487,0,0,1,.027.376,3.034,3.034,0,0,1-.027.436,2.841,2.841,0,0,0-.023.384,1.581,1.581,0,0,0-.052.388,1.605,1.605,0,0,1-.051.388c-.032.142-.083.385-.149.732l1.005-.139a19.8,19.8,0,0,0,4.578-1.248,11.023,11.023,0,0,0,1.208-.448q.6-.26,1.207-.5c.4-.19.795-.382,1.183-.57S166,19.2,166.437,19l1.157-.415a2.917,2.917,0,0,1,2.465.114,2.753,2.753,0,0,1,1.46,1.929,3.426,3.426,0,0,1-.126,1.872,3.934,3.934,0,0,1-1.031,1.592A15.741,15.741,0,0,0,169,25.652c-.2.3-.4.606-.6.923s-.385.638-.554.966a28.391,28.391,0,0,0-1.862,4.373c-.1.388-.2.766-.3,1.134s-.2.749-.3,1.134c-.034.175-.066.365-.1.573s-.068.4-.1.572a5.1,5.1,0,0,0-.077.57,5.213,5.213,0,0,1-.075.568,6.5,6.5,0,0,0-.1,1.133v1.116a2.65,2.65,0,0,1,.05.5,2.519,2.519,0,0,0,.05.5,2.782,2.782,0,0,0,.251.88,1.99,1.99,0,0,0,.3.568.629.629,0,0,0,.151.182c.033.028.059.042.075.04s.042.013.075.04a.183.183,0,0,1,.1.013.2.2,0,0,0,.1.01.61.61,0,0,0,.176-.048.548.548,0,0,1,.176-.051,2.214,2.214,0,0,0,.4-.209c.133-.085.283-.174.452-.267a4.142,4.142,0,0,0,.9-.735,6.627,6.627,0,0,0,.856-.829l.855-.984a2.7,2.7,0,0,0,.2-.255c.068-.094.135-.179.2-.258a4.346,4.346,0,0,1,.4-.512,37.23,37.23,0,0,0,2.816-4.354q.352-.555.655-1.108t.6-1.151c.2-.4.4-.792.6-1.175s.387-.773.554-1.17a.748.748,0,0,1,.4-.411.812.812,0,0,1,.554-.078m-25.808-7.531a1.7,1.7,0,0,0,.3.592,3.352,3.352,0,0,0,.454.47l.6.374a2.835,2.835,0,0,1,.352.154,2.845,2.845,0,0,0,.353.153,2.407,2.407,0,0,0,.653.24,6.916,6.916,0,0,0,.755.124c.065-.347.117-.592.151-.732a2.477,2.477,0,0,1,.024-.359,1.962,1.962,0,0,0,.026-.309,1.108,1.108,0,0,0,.051-.337v-.33a2.4,2.4,0,0,0-.2-1.09,2.268,2.268,0,0,0-.251-.371,1.238,1.238,0,0,0-.3-.211,1.791,1.791,0,0,0-.956-.07,1.643,1.643,0,0,0-.251.06,1.947,1.947,0,0,1-.3.068V18.8l-.05.006-.051.006-.05.008a.169.169,0,0,0-.1.065.412.412,0,0,0-.152.046.212.212,0,0,1-.1.04,2.155,2.155,0,0,0-.755.664.566.566,0,0,0-.151.376.811.811,0,0,0-.05.313" transform="translate(29.311 -6.36)" fill="#11361f"/><path d="M152.779,67.672a12.769,12.769,0,0,1-1.271,1.765q-.664.886-1.421,1.725a20.386,20.386,0,0,1-1.661,1.636q-.427.366-.879.732c-.3.248-.635.5-1,.749a9.33,9.33,0,0,1-2.177,1.159,8.229,8.229,0,0,1-2.419.7l-.3.042-.907,1.591a32.743,32.743,0,0,1-2.48,3.705,20.035,20.035,0,0,1-1.543,1.8q-.817.846-1.724,1.645l-.968.745c-.323.248-.665.5-1.026.754q-.306.165-.545.29t-.545.288a5.35,5.35,0,0,1-1.15.59,2.514,2.514,0,0,1-.574.231q-.272.069-.574.172c-.2.069-.4.126-.6.176s-.4.107-.607.176l-.3.042-.18.024-.061.009-.063.009a2.676,2.676,0,0,1-.6.144,3.277,3.277,0,0,0-.635.028,4.259,4.259,0,0,1-.7.036,9.955,9.955,0,0,1-2.662-.364,6.584,6.584,0,0,1-1.271-.556,10.507,10.507,0,0,1-1.15-.755,6.458,6.458,0,0,1-1.754-2.016,11.86,11.86,0,0,1-.6-1.168A9.021,9.021,0,0,1,118,82.589a12.451,12.451,0,0,1-.544-2.368,5.865,5.865,0,0,1-.121-1.173,11.322,11.322,0,0,0-.061-1.183,28.438,28.438,0,0,1,.365-4.569q.18-1.125.422-2.227t.544-2.182q.6-2.1,1.451-4.3a38.375,38.375,0,0,1,1.938-4.238,21.89,21.89,0,0,1,1.178-2.118q.635-1,1.421-2.091a10.281,10.281,0,0,1,.787-1.025q.421-.486.907-.981a18.839,18.839,0,0,1,2.056-2A12.25,12.25,0,0,1,131,50.367a3.981,3.981,0,0,1,.754-.38c.264-.1.536-.205.819-.328l.907-.309.481-.068a.145.145,0,0,0,.093-.042.26.26,0,0,1,.152-.052l.121-.018.057-.008a4.307,4.307,0,0,1,2.45.209,3.934,3.934,0,0,1,1.785,1.4,12.621,12.621,0,0,1,2.178-.487c.242.008.484,0,.726-.009a4.014,4.014,0,0,1,.785.043,7.076,7.076,0,0,1,1.453.47,6.307,6.307,0,0,1,1.271.861,9.07,9.07,0,0,1,.845,1.1,5.6,5.6,0,0,1,.574,1.142,7.987,7.987,0,0,1,.333,1.174q.122.593.182,1.136a10.578,10.578,0,0,1,.06,1.151A15.818,15.818,0,0,1,147,59.53q-.094,1.081-.274,2.144a39.36,39.36,0,0,1-.907,4.158q-.3,1.081-.6,2.068t-.726,2.024c-.08.255-.172.505-.271.741s-.193.485-.273.74c.2-.069.4-.126.606-.176a2.588,2.588,0,0,0,.6-.236c.24-.116.493-.241.754-.38s.536-.288.817-.45a15.327,15.327,0,0,0,1.543-1.069q.758-.593,1.481-1.244c.242-.236.476-.472.7-.708s.454-.47.7-.707a9.187,9.187,0,0,0,.7-.768c.221-.276.433-.528.635-.76a1.254,1.254,0,0,1,.665-.429.732.732,0,0,1,.666.182.838.838,0,0,1,.181,1.2q-.3.469-.6.908t-.6.907M136.75,77.6a15.135,15.135,0,0,0,1.148-1.5.062.062,0,0,0,.061-.069,3.544,3.544,0,0,1-.514-.172,3.666,3.666,0,0,0-.512-.172c-.4-.147-.789-.309-1.152-.482a10.484,10.484,0,0,1-1.028-.559,13.111,13.111,0,0,1-3.265-3.332,2.811,2.811,0,0,1-.362-.439l-.061-.174L131,70.7v-.121a.37.37,0,0,1-.091-.11.433.433,0,0,0-.089-.11c-.083-.193-.175-.383-.274-.573s-.19-.379-.272-.573a12.368,12.368,0,0,1-.726-2.341,12.136,12.136,0,0,1-.24-2.532V63.61a.533.533,0,0,0-.093.134.523.523,0,0,1-.091.135,26.292,26.292,0,0,0-1.813,3.185,33.284,33.284,0,0,0-2.54,6.7c-.121.587-.233,1.152-.333,1.7a14.468,14.468,0,0,0-.211,1.677,9.725,9.725,0,0,0,.059,2.922,4.825,4.825,0,0,0,.3,1.182c.082.151.159.293.242.424s.161.253.242.364l.332.29a1.241,1.241,0,0,0,.394.221,4.283,4.283,0,0,0,1.027.283,1.987,1.987,0,0,0,.665.031.612.612,0,0,1,.3.019l.182-.026.182-.027.727-.1a2.045,2.045,0,0,0,.361-.082,2.738,2.738,0,0,1,.364-.08,10.227,10.227,0,0,0,2.964-1.328A22.84,22.84,0,0,0,135.418,79c.242-.236.476-.472.7-.707s.434-.467.635-.7m3.993-22.235a2.571,2.571,0,0,0-1.754,1.4,4.336,4.336,0,0,0-.364.54c-.038.087-.082.185-.121.291a2.937,2.937,0,0,1-.121.292,4.613,4.613,0,0,0-.362,1.332c-.08.461-.162.9-.241,1.317a12.885,12.885,0,0,0-.182,1.307,6.68,6.68,0,0,0-.091.685c-.022.248-.031.472-.031.675a2.32,2.32,0,0,0-.029.646c.019.222.029.454.029.7a3.133,3.133,0,0,1,.061.633,2.082,2.082,0,0,0,.121.685,1.874,1.874,0,0,0,.121.595v.184c0,.041.019.059.063.052v.121a.449.449,0,0,1,.057.175.416.416,0,0,0,.061.176,9.78,9.78,0,0,0,1.15,2.466,3.028,3.028,0,0,0,.393.493c.143.145.291.306.453.487a2.856,2.856,0,0,0,.484.36,1.106,1.106,0,0,0,.3.142c.12-.342.25-.676.393-1s.272-.657.393-1c.2-.6.393-1.2.574-1.82s.353-1.239.514-1.872a14.01,14.01,0,0,0,.364-1.823c.079-.621.162-1.244.241-1.865a17.891,17.891,0,0,0,.031-1.806,16.74,16.74,0,0,0-.151-1.72,4.538,4.538,0,0,0-.365-1.475,2.783,2.783,0,0,0-.6-1.077,1.531,1.531,0,0,0-.362-.255.306.306,0,0,0-.3-.14.223.223,0,0,1-.119-.013.391.391,0,0,0-.182-.006,1.484,1.484,0,0,0-.422.12" transform="translate(21.108 2.015)" fill="#11361f"/><path d="M175.948,58.649a.644.644,0,0,1,.151.74,6.14,6.14,0,0,0-.251.595l-.3.6a3.887,3.887,0,0,1-.2.459c-.1.2-.211.41-.327.629s-.236.431-.353.633a2.68,2.68,0,0,0-.226.463,12.479,12.479,0,0,1-.552,1.145c-.2.366-.4.75-.6,1.151-.235.406-.453.79-.655,1.159s-.421.735-.653,1.106a5.628,5.628,0,0,0-.353.555,5.669,5.669,0,0,1-.352.558q-.2.283-.378.561t-.376.56q-.4.565-.78,1.1t-.831,1.106a15.434,15.434,0,0,1-2.012,2.108c-.2.2-.4.376-.6.541s-.421.329-.655.5c-.236.135-.487.279-.755.435a5.414,5.414,0,0,1-.856.4c-.167.055-.334.114-.5.171a2.784,2.784,0,0,1-.5.121l-.552.077a1.856,1.856,0,0,1-.3.017c-.1,0-.219-.013-.352-.027a1.741,1.741,0,0,0-.327-.032.7.7,0,0,1-.328-.08c-.133-.05-.259-.092-.378-.125s-.242-.077-.378-.126a5.294,5.294,0,0,1-.6-.473.905.905,0,0,1-.277-.242c-.083-.106-.16-.205-.226-.3a4.37,4.37,0,0,1-.554-1.091,5.053,5.053,0,0,1-.152-.513c-.032-.148-.066-.3-.1-.468a4.688,4.688,0,0,1-.1-.9v-.812a6.224,6.224,0,0,0,.051-.771,5.229,5.229,0,0,1,.048-.716c.034-.242.069-.476.1-.7s.068-.44.1-.648q.1-.723.226-1.353c.083-.417.176-.837.277-1.257l.6-2.521q.3-1.212.629-2.426t.628-2.423c.1-.387.193-.771.277-1.156s.177-.769.278-1.157.193-.762.276-1.129.16-.725.226-1.073c.034-.174.084-.4.152-.681a.218.218,0,0,0-.125.043.127.127,0,0,1-.077.036,2.339,2.339,0,0,0-.452.265,3.238,3.238,0,0,0-.454.293,3.089,3.089,0,0,1-.452.29c-.3.212-.6.441-.906.686a6.789,6.789,0,0,0-.855.829,4.424,4.424,0,0,0-.4.412c-.134.153-.269.307-.4.462s-.26.306-.378.458-.242.306-.376.459c-.471.642-.93,1.305-1.384,2s-.9,1.387-1.333,2.09a12.192,12.192,0,0,1-.652,1.108l-.3.55c-.1.184-.2.366-.3.549q-.251.545-.553,1.068a10.233,10.233,0,0,0-.552,1.118q-.555,1.145-1.083,2.284t-.98,2.27q-.253.6-.453,1.156c-.134.374-.286.76-.452,1.153-.069.181-.135.375-.2.588s-.133.408-.2.586a4.988,4.988,0,0,0-.177.583,4.954,4.954,0,0,1-.175.584.05.05,0,0,0-.05.057l-.1.521A4.092,4.092,0,0,1,147,77.942a3.774,3.774,0,0,1-2.643.952,2.772,2.772,0,0,1-2.262-1.159,3.343,3.343,0,0,1-.554-2.616.788.788,0,0,1,.05-.31l6.641-25.255a2.706,2.706,0,0,1,1.108-1.6,2.526,2.526,0,0,1,1.811-.481,1.99,1.99,0,0,1,1.407.846,2.164,2.164,0,0,1,.352,1.651l-2.614,14.842q.2-.536.4-1.073c.135-.356.268-.73.4-1.123.069-.177.144-.375.228-.589s.157-.411.226-.59a4.265,4.265,0,0,1,.251-.62,4.133,4.133,0,0,0,.251-.619c.334-.791.68-1.583,1.031-2.377s.73-1.592,1.133-2.394a3.93,3.93,0,0,1,.277-.573c.116-.2.225-.412.327-.629l.6-1.2c.235-.406.459-.818.679-1.238s.461-.851.73-1.3c.134-.186.268-.392.4-.614s.269-.444.4-.665q.251-.289.5-.629c.168-.226.334-.435.5-.629a16.51,16.51,0,0,1,1.208-1.235,6.715,6.715,0,0,1,1.457-1.118c.268-.171.545-.337.832-.5a6,6,0,0,1,.879-.4c.168-.057.328-.114.477-.168l.479-.168a1.93,1.93,0,0,0,.5-.12l.251-.034.1-.014.152-.022.1-.014.1-.014.2-.028a1.341,1.341,0,0,1,.4-.006,2.162,2.162,0,0,1,.477-.014c.151.013.31.024.477.034a3.826,3.826,0,0,1,1.008.318,4.515,4.515,0,0,1,.954.527,2.652,2.652,0,0,1,.429.347c.117.119.242.236.376.353.1.156.193.295.278.419a2.762,2.762,0,0,1,.226.425,2.491,2.491,0,0,1,.351.739c.068.245.135.482.2.708a5.724,5.724,0,0,1,.152,1.2,2.613,2.613,0,0,1,0,1.016,8.95,8.95,0,0,1-.152,1.7,5.945,5.945,0,0,0-.151.734,5.681,5.681,0,0,1-.151.731c-.068.246-.135.476-.2.688s-.135.443-.2.689l-.4,1.275c-.134.426-.286.836-.452,1.231-.17.43-.328.842-.48,1.235s-.31.789-.477,1.183c-.336.828-.663,1.617-.981,2.373s-.628,1.508-.93,2.262l-.9,2.26q-.4,1.02-.806,2.193a4.284,4.284,0,0,0-.277,1.309c.018.235.117.329.3.287a2.776,2.776,0,0,0,.781-.387c.333-.217.7-.436,1.1-.664a3.618,3.618,0,0,0,.453-.393q.2-.2.4-.385l.906-.888q.854-.882,1.659-1.807t1.612-1.9c.267-.308.527-.632.777-.972s.513-.68.781-1.021a8.314,8.314,0,0,0,.653-.981c.3-.5.521-.842.655-1.031l.4-.513.351-.505.051-.008a.559.559,0,0,1,.906-.227" transform="translate(27.671 0.639)" fill="#11361f"/><path d="M195.884,59.3l-.906,1.244c-.3.415-.6.828-.906,1.244q-.955,1.2-1.962,2.38t-2.161,2.308c-.37.39-.746.763-1.133,1.122s-.8.721-1.233,1.087a27.193,27.193,0,0,1-2.565,2.033,21.237,21.237,0,0,1-2.868,1.872l-.8.419a8.775,8.775,0,0,1-.805.365q-.4.157-.831.292c-.286.091-.578.191-.88.3a3.739,3.739,0,0,1-.855.221c-.3.043-.6.084-.906.126a8.213,8.213,0,0,1-1.911.064,5.692,5.692,0,0,1-1.911-.345,7,7,0,0,1-.956-.324c-.3-.126-.6-.272-.906-.433a7.158,7.158,0,0,1-1.559-1.206,8,8,0,0,1-.653-.746c-.2-.259-.387-.513-.555-.76a5.637,5.637,0,0,1-.45-.8,8.757,8.757,0,0,1-.355-.865,11.1,11.1,0,0,1-.452-1.766,8.24,8.24,0,0,1-.226-1.7q-.025-.857.024-1.731t.176-1.7c.084-.551.194-1.092.327-1.618a27.709,27.709,0,0,1,2.366-6.12c.234-.508.484-.989.753-1.451s.555-.915.856-1.364.6-.887.906-1.319a15.51,15.51,0,0,1,1.005-1.284,7.361,7.361,0,0,1,.555-.661c.2-.214.385-.417.553-.61.2-.2.4-.387.6-.567s.4-.369.6-.567c.436-.4.88-.773,1.333-1.127a15.443,15.443,0,0,1,1.434-.985q.653-.4,1.559-.878c.267-.1.544-.212.829-.319s.579-.217.88-.325a6.092,6.092,0,0,1,.931-.256,3.919,3.919,0,0,1,.981-.061c.334-.011.679-.009,1.031.009a4.532,4.532,0,0,1,1.082.2,5.281,5.281,0,0,1,1.961,1.049,4.9,4.9,0,0,1,1.409,1.734,8.106,8.106,0,0,1,.7,1.934,14.04,14.04,0,0,1,.152,2.01,11.863,11.863,0,0,1-.152,1.9q-.1.473-.227.921t-.226.87q-.3.905-.68,1.77a11.274,11.274,0,0,1-.929,1.7,9.355,9.355,0,0,1-1.157,1.633,6.907,6.907,0,0,1-1.509,1.531c-.269.24-.57.486-.906.735a1.112,1.112,0,0,0-.251.138l-.152.07a.165.165,0,0,1-.1.066,4.165,4.165,0,0,1-.4.209,9.127,9.127,0,0,1-1.609.679,11.574,11.574,0,0,1-3.471.738l-.9-.026a4.3,4.3,0,0,1-.429-.043,3.42,3.42,0,0,1-.427-.092,6.185,6.185,0,0,1-1.61-.537,2.265,2.265,0,0,1-.376-.176,1.908,1.908,0,0,1-.328-.235,1.12,1.12,0,0,1-.3-.212,1.941,1.941,0,0,1-.352-.255l-.5-.54c-.168-.181-.336-.376-.5-.59a.129.129,0,0,1-.05-.1.121.121,0,0,0-.05-.093v.812a9.546,9.546,0,0,0,.075,1.233c.051.384.108.757.177,1.12a6.97,6.97,0,0,0,.276,1.053,9.789,9.789,0,0,0,.378.939,3.977,3.977,0,0,0,.9,1.4,2.208,2.208,0,0,0,.5.487,5.968,5.968,0,0,0,.552.33,1.806,1.806,0,0,0,.578.249,6.31,6.31,0,0,0,.73.129,4.233,4.233,0,0,0,.856.108q.452.013,1.005.038c.168-.024.343-.04.528-.048s.36-.027.528-.048a3.129,3.129,0,0,0,1.106-.154,15.961,15.961,0,0,0,2.417-.641q.6-.237,1.206-.523c.4-.193.805-.4,1.207-.625s.8-.467,1.183-.723.763-.513,1.132-.768q1.156-.819,2.289-1.74c.753-.612,1.485-1.254,2.187-1.931.168-.158.346-.318.53-.48a5.062,5.062,0,0,0,.528-.531c.167-.158.345-.333.528-.53s.36-.388.528-.582.42-.456.755-.79.586-.6.753-.791a6.266,6.266,0,0,1,.5-.527l.2-.282.251-.288a.726.726,0,0,1,1.057-.2.665.665,0,0,1,.1.953l-.1.165-.1.166-.251.341c-.069.111-.134.213-.2.308s-.135.2-.2.306c-.135.222-.353.531-.655.93s-.537.709-.7.935M174.15,52.721a11.04,11.04,0,0,0-.528,1.243q-.226.641-.426,1.279a11.844,11.844,0,0,0-.5,2.405l.05.045q.6.322,1.157.55a3.487,3.487,0,0,0,1.157.3.388.388,0,0,0,.126.033.4.4,0,0,1,.125.033.349.349,0,0,1,.151,0,.316.316,0,0,0,.152.005.792.792,0,0,0,.277.011.829.829,0,0,1,.277.013,5.7,5.7,0,0,0,2.112-.5c.336-.147.662-.311.982-.491s.646-.378.98-.595q.251-.186.478-.371c.151-.121.31-.246.478-.371a.5.5,0,0,1,.1-.089.56.56,0,0,0,.1-.089l.051-.059.05-.057a.3.3,0,0,0,.124-.12,1.09,1.09,0,0,1,.126-.17,2.482,2.482,0,0,0,.228-.311c.082-.129.158-.249.226-.361a2.757,2.757,0,0,0,.452-.925,4.518,4.518,0,0,0,.4-.945,10.2,10.2,0,0,0,.251-1.026c.033-.174.068-.339.1-.5a43.281,43.281,0,0,1,.1-.953v-.458a1.361,1.361,0,0,0,.026-.435,2.491,2.491,0,0,1-.026-.376,2.174,2.174,0,0,0-.025-.353,1.546,1.546,0,0,1-.026-.25.876.876,0,0,1-.048-.273.473.473,0,0,0-.051-.221.759.759,0,0,0-.152-.384,2.52,2.52,0,0,1-.2-.2.761.761,0,0,0-.3-.185,2.471,2.471,0,0,0-.855-.288,1.806,1.806,0,0,0-.528-.054,4.541,4.541,0,0,1-.528,0,3.14,3.14,0,0,0-1.108.154,6.374,6.374,0,0,0-2.211,1.12,6.075,6.075,0,0,0-1.009.9c-.3.314-.586.641-.854.982a14,14,0,0,0-1.46,2.336" transform="translate(34.749 0.345)" fill="#11361f"/></g><g transform="translate(3058.255 4656.55)"><path d="M50.679,76.744l-1.091.8c-.172-.327-.387-.464-.639-.417a.535.535,0,0,0-.311.18.5.5,0,0,0-.13.338c0,.223.255.4.763.519a3.608,3.608,0,0,1,1.414.582,1.23,1.23,0,0,1,.365.976,2.233,2.233,0,0,1-.61,1.525,2.538,2.538,0,0,1-1.432.805A1.684,1.684,0,0,1,46.971,81l1.127-.741a1.953,1.953,0,0,0,.357.463.7.7,0,0,0,.575.119A.71.71,0,0,0,49.7,80.1c0-.24-.171-.43-.515-.572-.134-.043-.267-.084-.4-.122s-.268-.08-.406-.121a1.942,1.942,0,0,1-.809-.421,1.214,1.214,0,0,1-.3-.88,2.011,2.011,0,0,1,.509-1.351,2.2,2.2,0,0,1,1.267-.732,1.4,1.4,0,0,1,1.632.846" transform="translate(-42.564 -55.091)" fill="#11361f"/><path d="M51.175,73.865a1.011,1.011,0,0,1,.254-.658,1.025,1.025,0,0,1,.6-.37.706.706,0,0,1,.61.143.687.687,0,0,1,.253.567,1.022,1.022,0,0,1-.253.669,1,1,0,0,1-.6.371.7.7,0,0,1-.864-.721M52.695,76v5.817l-1.319.246V76.245Z" transform="translate(-41.404 -55.931)" fill="#11361f"/><path d="M53.912,75.182l1.327-.249v.537a2.673,2.673,0,0,1,1.561-.991,1.674,1.674,0,0,1,1.554.346,2.291,2.291,0,0,1,.481,1.684v3.564l-1.324.249v-3.25a1.922,1.922,0,0,0-.235-1.142q-.23-.291-.834-.177a1.274,1.274,0,0,0-.933.616,3.418,3.418,0,0,0-.269,1.573v2.806L53.912,81Z" transform="translate(-40.648 -55.487)" fill="#11361f"/><path d="M63.818,73.582v1.786a2.445,2.445,0,0,0-.81-.618,1.424,1.424,0,0,0-.827-.061,2.018,2.018,0,0,0-1.239.766,2.232,2.232,0,0,0-.493,1.423,1.614,1.614,0,0,0,.476,1.254,1.354,1.354,0,0,0,1.226.3,1.968,1.968,0,0,0,.84-.367,4.435,4.435,0,0,0,.827-.943V78.89a4.049,4.049,0,0,1-1.608.726,2.635,2.635,0,0,1-2.219-.454,2.424,2.424,0,0,1-.891-2.011,3.574,3.574,0,0,1,.9-2.368,3.749,3.749,0,0,1,2.218-1.312,3,3,0,0,1,1.6.111" transform="translate(-39.216 -55.768)" fill="#11361f"/><path d="M69.3,75.512l-4.1.771a1.468,1.468,0,0,0,.458,1.054,1.193,1.193,0,0,0,1.039.222,1.6,1.6,0,0,0,.815-.393,4.418,4.418,0,0,0,.721-1.018l1.115.424a5.9,5.9,0,0,1-.545.87,3.935,3.935,0,0,1-.616.641,3.091,3.091,0,0,1-.711.435,3.686,3.686,0,0,1-.828.25,2.284,2.284,0,0,1-2.053-.45,2.663,2.663,0,0,1-.775-2.086,3.824,3.824,0,0,1,.752-2.375,3.194,3.194,0,0,1,2.007-1.219,2.182,2.182,0,0,1,1.994.443A2.761,2.761,0,0,1,69.3,75.2Zm-1.355-.843a1.027,1.027,0,0,0-1.332-.824,1.5,1.5,0,0,0-.452.16,1.613,1.613,0,0,0-.385.287,1.746,1.746,0,0,0-.3.393,1.945,1.945,0,0,0-.188.484Z" transform="translate(-37.913 -55.999)" fill="#11361f"/><path d="M71.72,70.427l-1.567.293.752-1.442,2.183-.411v9.219l-1.368.256Z" transform="translate(-36.166 -57.022)" fill="#11361f"/><path d="M77.432,77.636l-1-.57,2.164-3.411c-.116.038-.217.07-.3.093a1.955,1.955,0,0,1-.2.05,2.144,2.144,0,0,1-1.9-.5,2.386,2.386,0,0,1-.8-1.892,3.868,3.868,0,0,1,3.021-3.649,2.553,2.553,0,0,1,2.154.491,2.322,2.322,0,0,1,.915,1.929,4.871,4.871,0,0,1-.891,2.492Zm-.7-6.579a1.424,1.424,0,0,0,.5,1.161,1.4,1.4,0,0,0,1.215.285,2.182,2.182,0,0,0,1.712-2.065,1.394,1.394,0,0,0-1.719-1.423,2.193,2.193,0,0,0-1.707,2.042" transform="translate(-34.719 -57.344)" fill="#11361f"/><path d="M83.48,76.5l-1-.57,2.165-3.409c-.117.037-.218.07-.3.092a1.955,1.955,0,0,1-.2.05,2.144,2.144,0,0,1-1.9-.5,2.389,2.389,0,0,1-.8-1.894,3.867,3.867,0,0,1,3.023-3.649,2.559,2.559,0,0,1,2.153.491,2.322,2.322,0,0,1,.915,1.929,4.859,4.859,0,0,1-.891,2.492Zm-.7-6.579a1.395,1.395,0,0,0,1.714,1.447A2.188,2.188,0,0,0,86.2,69.3a1.394,1.394,0,0,0-1.72-1.421,2.19,2.19,0,0,0-1.707,2.04" transform="translate(-33.05 -57.657)" fill="#11361f"/><path d="M88.876,70.368a1.836,1.836,0,0,1-1-1.765,3.04,3.04,0,0,1,.755-2.016,3.215,3.215,0,0,1,1.9-1.109,2.19,2.19,0,0,1,1.877.4,2.1,2.1,0,0,1,.752,1.739,2.863,2.863,0,0,1-.991,2.128,1.6,1.6,0,0,1,.856.711,2.287,2.287,0,0,1,.318,1.229,3.232,3.232,0,0,1-.786,2.154A3.371,3.371,0,0,1,90.543,75a2.48,2.48,0,0,1-2.072-.4,2.171,2.171,0,0,1-.822-1.827,2.758,2.758,0,0,1,1.227-2.405m.117,2.1a1.28,1.28,0,0,0,.434,1.017,1.22,1.22,0,0,0,1.067.254A1.916,1.916,0,0,0,92,71.926a1.225,1.225,0,0,0-1.5-1.253,1.807,1.807,0,0,0-1.062.648,1.763,1.763,0,0,0-.439,1.151m.17-4.115a1.124,1.124,0,0,0,.393.916,1.11,1.11,0,0,0,.962.226,1.734,1.734,0,0,0,1.355-1.635,1.106,1.106,0,0,0-1.355-1.125,1.611,1.611,0,0,0-.957.587,1.592,1.592,0,0,0-.4,1.031" transform="translate(-31.338 -57.973)" fill="#11361f"/><rect width="69.028" height="0.76" transform="translate(0 12.756) rotate(-10.649)" fill="#11361f"/><rect width="69.028" height="0.76" transform="translate(0 33.755) rotate(-10.649)" fill="#11361f"/></g></g></svg>